<svg version="1.2" baseProfile="tiny-ps" xmlns="http://www.w3.org/2000/svg" viewBox="0 0 308 87" width="308" height="87">
	<title>New Project</title>
	<style>
		tspan { white-space:pre }
		.shp0 { fill: #ffffff } 
		.shp1 { fill: #e53054 } 
	</style>
	<path id="&lt;Path&gt;" class="shp0" d="M157.12 47.64L148.65 15.79L138.04 15.79L138.04 71.28L146.05 71.28L146.05 34.76L153.62 63.1L160.69 63.1L168.26 34.76L168.26 71.28L176.26 71.28L176.26 15.79L165.65 15.79L157.12 47.64Z" />
	<path id="&lt;Compound Path&gt;" fill-rule="evenodd" class="shp0" d="M215.33 17.82C217.93 20.03 219.25 23.17 219.25 27.16L219.25 59.91C219.25 63.9 217.95 67.04 215.37 69.25C212.85 71.41 209.11 72.51 204.24 72.51C199.36 72.51 195.6 71.42 193.06 69.25C190.45 67.05 189.14 63.9 189.14 59.91L189.14 27.16C189.14 23.17 190.44 20.03 193.01 17.82C195.53 15.66 199.28 14.56 204.15 14.56C209.02 14.56 212.78 15.65 215.33 17.82ZM204.19 21.75C197.87 21.75 197.14 24.84 197.14 27.16L197.14 59.91C197.14 62.23 197.87 65.32 204.19 65.32C210.51 65.32 211.25 62.23 211.25 59.91L211.25 27.16C211.25 24.84 210.51 21.75 204.19 21.75Z" />
	<path id="&lt;Path&gt;" class="shp0" d="M255.62 52.39L239.74 15.79L232.12 15.79L232.12 71.28L240.13 71.28L240.13 34.68L256.01 71.28L263.63 71.28L263.63 15.79L255.62 15.79L255.62 52.39Z" />
	<path id="&lt;Compound Path&gt;" fill-rule="evenodd" class="shp0" d="M308.05 71.28L299.99 71.28L297.2 59L283.38 59L280.6 71.28L272.53 71.28L285.09 15.79L295.5 15.79L308.05 71.28ZM290.25 28.46L284.96 51.81L295.54 51.81L290.25 28.46Z" />
	<path id="&lt;Compound Path&gt;" fill-rule="evenodd" class="shp1" d="M46.77 74.49L30.14 87C12.65 80.31 0.23 63.38 0.23 43.54C0.23 23.7 12.65 6.77 30.14 0.07L46.77 12.58L63.4 0.07C80.89 6.77 93.31 23.7 93.31 43.54C93.31 63.38 80.89 80.31 63.4 87L46.77 74.49ZM46.77 72.84C62.93 72.84 76.07 59.69 76.07 43.54C76.07 27.38 62.93 14.23 46.77 14.23C30.61 14.23 17.47 27.38 17.47 43.54C17.47 59.69 30.61 72.84 46.77 72.84Z" />
</svg>