<svg version="1.2" baseProfile="tiny-ps" xmlns="http://www.w3.org/2000/svg" viewBox="0 0 1000 124" width="1000" height="124">
	<title>New Project</title>
	<style>
		tspan { white-space:pre }
		.shp0 { fill: #ffffff } 
	</style>
	<g id="Folder 2">
		<path id="Background" class="shp0" d="M24.08 124C10.76 124 0 113.22 0 99.89C0 86.56 10.76 75.78 24.08 75.78C37.4 75.78 48.17 86.56 48.17 99.89C48.17 113.22 37.4 124 24.08 124Z" />
		<path id="0 " fill="#000000" aria-label="0"  d="M24.53 91.18Q22.26 91.18 21.11 93.42Q19.98 95.65 19.98 100.14Q19.98 104.62 21.11 106.86Q22.26 109.09 24.53 109.09Q26.82 109.09 27.95 106.86Q29.1 104.62 29.1 100.14Q29.1 95.65 27.95 93.42Q26.82 91.18 24.53 91.18ZM24.53 88.84Q28.19 88.84 30.11 91.74Q32.05 94.63 32.05 100.14Q32.05 105.64 30.11 108.54Q28.19 111.42 24.53 111.42Q20.88 111.42 18.94 108.54Q17.02 105.64 17.02 100.14Q17.02 94.63 18.94 91.74Q20.88 88.84 24.53 88.84Z" />
		<path id="Shape 1" class="shp0" d="M21.62 0.22L26.62 0.22L26.62 82L21.62 82L21.62 0.22Z" />
	</g>
	<g id="Folder 2">
		<path id="Background copy" class="shp0" d="M261.61 124C248.3 124 237.53 113.22 237.53 99.89C237.53 86.56 248.3 75.78 261.61 75.78C274.93 75.78 285.7 86.56 285.7 99.89C285.7 113.22 274.93 124 261.61 124Z" />
		<path id="1 " fill="#000000" aria-label="1"  d="M255.7 111L255.7 108.52L260.51 108.52L260.51 91.93L255.28 92.98L255.28 90.3L260.48 89.25L263.42 89.25L263.42 108.52L268.23 108.52L268.23 111L255.7 111Z" />
		<path id="Shape 1 copy" class="shp0" d="M258.62 0.22L263.62 0.22L263.62 82L258.62 82L258.62 0.22Z" />
	</g>
	<g id="Folder 2">
		<path id="Background copy 2" class="shp0" d="M499.15 124C485.83 124 475.06 113.22 475.06 99.89C475.06 86.56 485.83 75.78 499.15 75.78C512.46 75.78 523.23 86.56 523.23 99.89C523.23 113.22 512.46 124 499.15 124Z" />
		<path id="2 " fill="#000000" aria-label="2"  d="M496.73 108.52L507 108.52L507 111L493.19 111L493.19 108.52Q494.86 106.79 497.74 103.88Q500.64 100.95 501.39 100.1Q502.8 98.52 503.35 97.42Q503.92 96.32 503.92 95.25Q503.92 93.52 502.7 92.43Q501.49 91.33 499.54 91.33Q498.15 91.33 496.61 91.81Q495.08 92.3 493.33 93.27L493.33 90.3Q495.11 89.59 496.65 89.22Q498.2 88.86 499.48 88.86Q502.86 88.86 504.87 90.55Q506.88 92.24 506.88 95.06Q506.88 96.4 506.37 97.61Q505.87 98.81 504.55 100.44Q504.18 100.86 502.23 102.89Q500.28 104.9 496.73 108.52Z" />
		<path id="Shape 1 copy 2" class="shp0" d="M496.62 0.22L501.62 0.22L501.62 82L496.62 82L496.62 0.22Z" />
	</g>
	<g id="Folder 2">
		<path id="Background copy 4" class="shp0" d="M737.68 124C724.36 124 713.6 113.22 713.6 99.89C713.6 86.56 724.36 75.78 737.68 75.78C751 75.78 761.76 86.56 761.76 99.89C761.76 113.22 751 124 737.68 124Z" />
		<path id="3 " fill="#000000" aria-label="3"  d="M740.11 99.27Q742.22 99.72 743.4 101.15Q744.59 102.58 744.59 104.68Q744.59 107.9 742.38 109.66Q740.16 111.42 736.08 111.42Q734.72 111.42 733.26 111.16Q731.82 110.88 730.27 110.34L730.27 107.5Q731.5 108.22 732.95 108.58Q734.41 108.95 736 108.95Q738.77 108.95 740.21 107.85Q741.66 106.76 741.66 104.68Q741.66 102.75 740.31 101.68Q738.97 100.58 736.57 100.58L734.03 100.58L734.03 98.17L736.68 98.17Q738.85 98.17 740 97.31Q741.15 96.43 741.15 94.8Q741.15 93.13 739.96 92.24Q738.78 91.33 736.57 91.33Q735.36 91.33 733.97 91.6Q732.59 91.86 730.93 92.41L730.93 89.79Q732.6 89.32 734.06 89.09Q735.53 88.86 736.83 88.86Q740.18 88.86 742.13 90.39Q744.08 91.9 744.08 94.5Q744.08 96.3 743.05 97.55Q742.01 98.79 740.11 99.27Z" />
		<path id="Shape 1 copy 3" class="shp0" d="M734.62 0.22L739.62 0.22L739.62 82L734.62 82L734.62 0.22Z" />
	</g>
	<g id="Folder 1">
		<path id="Background copy 3" class="shp0" d="M976.21 124C962.89 124 952.13 113.22 952.13 99.89C952.13 86.56 962.89 75.78 976.21 75.78C989.53 75.78 1000.29 86.56 1000.29 99.89C1000.29 113.22 989.53 124 976.21 124Z" />
		<path id="4 " fill="#000000" aria-label="4"  d="M978.28 103.42L978.28 91.81L970.85 103.42L978.28 103.42ZM968.46 103.03L977.5 89.25L981.2 89.25L981.2 103.42L984.31 103.42L984.31 105.87L981.2 105.87L981.2 111L978.28 111L978.28 105.87L968.46 105.87L968.46 103.03Z" />
		<path id="Shape 1 copy 4" class="shp0" d="M973.62 0.22L978.62 0.22L978.62 82L973.62 82L973.62 0.22Z" />
	</g>
	<path id="Shape 2" class="shp0" d="M22 44.51L22 32.52L978 32.52L978 44.51L22 44.51Z" />
</svg>