<svg xmlns="http://www.w3.org/2000/svg" width="16.173" height="16.17" viewBox="0 0 16.173 16.17"><defs><style>.a{fill:#fff;}</style></defs><path class="a" d="M9.35,12.2H6.823a.756.756,0,0,1-.758-.758V6.137H3.295A.631.631,0,0,1,2.849,5.06L7.654.253a.612.612,0,0,1,.862,0L13.323,5.06a.631.631,0,0,1-.445,1.077h-2.77v5.307A.756.756,0,0,1,9.35,12.2Zm6.823-.253v3.538a.756.756,0,0,1-.758.758H.758A.756.756,0,0,1,0,15.487V11.949a.756.756,0,0,1,.758-.758h4.3v.253a1.77,1.77,0,0,0,1.769,1.769H9.35a1.77,1.77,0,0,0,1.769-1.769v-.253h4.3A.756.756,0,0,1,16.173,11.949Zm-3.917,2.78a.632.632,0,1,0-.632.632A.634.634,0,0,0,12.256,14.729Zm2.022,0a.632.632,0,1,0-.632.632A.634.634,0,0,0,14.277,14.729Z" transform="translate(0 -0.075)"/></svg>